<mxfile host="app.diagrams.net" agent="Mozilla/5.0 (Macintosh; Intel Mac OS X 10_15_7) AppleWebKit/537.36 (KHTML, like Gecko) Chrome/128.0.0.0 Safari/537.36" version="24.7.16">
  <diagram name="第 1 页" id="ZNLoFNJ65pJ3Ls2WmZm9">
    <mxGraphModel dx="2094" dy="764" grid="1" gridSize="10" guides="1" tooltips="1" connect="1" arrows="1" fold="1" page="1" pageScale="1" pageWidth="827" pageHeight="1169" math="0" shadow="0">
      <root>
        <mxCell id="0" />
        <mxCell id="1" parent="0" />
        <mxCell id="HfIdxlfp_fUdMLVI8EaK-1" value="S_QUERY_RX" style="ellipse;whiteSpace=wrap;html=1;aspect=fixed;" vertex="1" parent="1">
          <mxGeometry x="80" y="160" width="120" height="120" as="geometry" />
        </mxCell>
        <mxCell id="HfIdxlfp_fUdMLVI8EaK-16" style="edgeStyle=orthogonalEdgeStyle;rounded=0;orthogonalLoop=1;jettySize=auto;html=1;exitX=0.5;exitY=1;exitDx=0;exitDy=0;entryX=0.5;entryY=0;entryDx=0;entryDy=0;" edge="1" parent="1" source="HfIdxlfp_fUdMLVI8EaK-2" target="HfIdxlfp_fUdMLVI8EaK-3">
          <mxGeometry relative="1" as="geometry" />
        </mxCell>
        <mxCell id="HfIdxlfp_fUdMLVI8EaK-2" value="S_READ" style="ellipse;whiteSpace=wrap;html=1;aspect=fixed;" vertex="1" parent="1">
          <mxGeometry x="520" y="160" width="120" height="120" as="geometry" />
        </mxCell>
        <mxCell id="HfIdxlfp_fUdMLVI8EaK-19" style="edgeStyle=orthogonalEdgeStyle;rounded=0;orthogonalLoop=1;jettySize=auto;html=1;exitX=0.5;exitY=1;exitDx=0;exitDy=0;entryX=0.5;entryY=0;entryDx=0;entryDy=0;" edge="1" parent="1" source="HfIdxlfp_fUdMLVI8EaK-3" target="HfIdxlfp_fUdMLVI8EaK-4">
          <mxGeometry relative="1" as="geometry" />
        </mxCell>
        <mxCell id="HfIdxlfp_fUdMLVI8EaK-3" value="S_CALCULATE" style="ellipse;whiteSpace=wrap;html=1;aspect=fixed;" vertex="1" parent="1">
          <mxGeometry x="520" y="400" width="120" height="120" as="geometry" />
        </mxCell>
        <mxCell id="HfIdxlfp_fUdMLVI8EaK-25" style="edgeStyle=orthogonalEdgeStyle;rounded=0;orthogonalLoop=1;jettySize=auto;html=1;exitX=0;exitY=1;exitDx=0;exitDy=0;entryX=1;entryY=1;entryDx=0;entryDy=0;" edge="1" parent="1" source="HfIdxlfp_fUdMLVI8EaK-4" target="HfIdxlfp_fUdMLVI8EaK-5">
          <mxGeometry relative="1" as="geometry" />
        </mxCell>
        <mxCell id="HfIdxlfp_fUdMLVI8EaK-4" value="S_QUERY_TX" style="ellipse;whiteSpace=wrap;html=1;aspect=fixed;" vertex="1" parent="1">
          <mxGeometry x="520" y="640" width="120" height="120" as="geometry" />
        </mxCell>
        <mxCell id="HfIdxlfp_fUdMLVI8EaK-24" style="edgeStyle=orthogonalEdgeStyle;rounded=0;orthogonalLoop=1;jettySize=auto;html=1;exitX=1;exitY=0;exitDx=0;exitDy=0;entryX=0;entryY=0;entryDx=0;entryDy=0;" edge="1" parent="1" source="HfIdxlfp_fUdMLVI8EaK-5" target="HfIdxlfp_fUdMLVI8EaK-4">
          <mxGeometry relative="1" as="geometry" />
        </mxCell>
        <mxCell id="HfIdxlfp_fUdMLVI8EaK-26" style="edgeStyle=orthogonalEdgeStyle;rounded=0;orthogonalLoop=1;jettySize=auto;html=1;exitX=0.5;exitY=0;exitDx=0;exitDy=0;entryX=0.5;entryY=1;entryDx=0;entryDy=0;" edge="1" parent="1" source="HfIdxlfp_fUdMLVI8EaK-5" target="HfIdxlfp_fUdMLVI8EaK-1">
          <mxGeometry relative="1" as="geometry" />
        </mxCell>
        <mxCell id="HfIdxlfp_fUdMLVI8EaK-5" value="S_WRITE" style="ellipse;whiteSpace=wrap;html=1;aspect=fixed;" vertex="1" parent="1">
          <mxGeometry x="80" y="640" width="120" height="120" as="geometry" />
        </mxCell>
        <mxCell id="HfIdxlfp_fUdMLVI8EaK-8" value="!avm_waitrequest &amp;&amp; avm_readdata[RX_OK_BIT] = 1" style="text;whiteSpace=wrap;" vertex="1" parent="1">
          <mxGeometry x="220" y="130" width="300" height="40" as="geometry" />
        </mxCell>
        <mxCell id="HfIdxlfp_fUdMLVI8EaK-9" value="" style="curved=1;endArrow=classic;html=1;rounded=0;exitX=0;exitY=0.5;exitDx=0;exitDy=0;entryX=0.5;entryY=0;entryDx=0;entryDy=0;" edge="1" parent="1" source="HfIdxlfp_fUdMLVI8EaK-1" target="HfIdxlfp_fUdMLVI8EaK-1">
          <mxGeometry width="50" height="50" relative="1" as="geometry">
            <mxPoint x="130" y="100" as="sourcePoint" />
            <mxPoint x="180" y="50" as="targetPoint" />
            <Array as="points">
              <mxPoint x="40" y="160" />
              <mxPoint x="80" y="120" />
            </Array>
          </mxGeometry>
        </mxCell>
        <mxCell id="HfIdxlfp_fUdMLVI8EaK-10" value="!avm_waitrequest &amp;&amp; avm_readdata[RX_OK_BIT] = 0" style="text;whiteSpace=wrap;" vertex="1" parent="1">
          <mxGeometry x="-120" y="100" width="300" height="40" as="geometry" />
        </mxCell>
        <mxCell id="HfIdxlfp_fUdMLVI8EaK-11" value="" style="curved=1;endArrow=classic;html=1;rounded=0;exitX=0.5;exitY=0;exitDx=0;exitDy=0;entryX=1;entryY=0.5;entryDx=0;entryDy=0;" edge="1" parent="1" source="HfIdxlfp_fUdMLVI8EaK-2" target="HfIdxlfp_fUdMLVI8EaK-2">
          <mxGeometry width="50" height="50" relative="1" as="geometry">
            <mxPoint x="610" y="120" as="sourcePoint" />
            <mxPoint x="750" y="200" as="targetPoint" />
            <Array as="points">
              <mxPoint x="640" y="120" />
              <mxPoint x="680" y="170" />
            </Array>
          </mxGeometry>
        </mxCell>
        <mxCell id="HfIdxlfp_fUdMLVI8EaK-13" value="avm_waitrequest = 1" style="text;whiteSpace=wrap;" vertex="1" parent="1">
          <mxGeometry x="620" y="100" width="120" height="40" as="geometry" />
        </mxCell>
        <mxCell id="HfIdxlfp_fUdMLVI8EaK-14" value="" style="endArrow=classic;html=1;rounded=0;exitX=1;exitY=0;exitDx=0;exitDy=0;entryX=0;entryY=0;entryDx=0;entryDy=0;" edge="1" parent="1" source="HfIdxlfp_fUdMLVI8EaK-1" target="HfIdxlfp_fUdMLVI8EaK-2">
          <mxGeometry width="50" height="50" relative="1" as="geometry">
            <mxPoint x="400" y="280" as="sourcePoint" />
            <mxPoint x="450" y="230" as="targetPoint" />
          </mxGeometry>
        </mxCell>
        <mxCell id="HfIdxlfp_fUdMLVI8EaK-15" value="" style="endArrow=classic;html=1;rounded=0;entryX=1;entryY=1;entryDx=0;entryDy=0;exitX=0;exitY=1;exitDx=0;exitDy=0;" edge="1" parent="1" source="HfIdxlfp_fUdMLVI8EaK-2" target="HfIdxlfp_fUdMLVI8EaK-1">
          <mxGeometry width="50" height="50" relative="1" as="geometry">
            <mxPoint x="400" y="280" as="sourcePoint" />
            <mxPoint x="450" y="230" as="targetPoint" />
          </mxGeometry>
        </mxCell>
        <mxCell id="HfIdxlfp_fUdMLVI8EaK-17" value="avm_waitrequest = 0 and bytes_counter = 95" style="text;html=1;align=center;verticalAlign=middle;resizable=0;points=[];autosize=1;strokeColor=none;fillColor=none;" vertex="1" parent="1">
          <mxGeometry x="580" y="320" width="260" height="30" as="geometry" />
        </mxCell>
        <mxCell id="HfIdxlfp_fUdMLVI8EaK-18" value="avm_waitrequest = 0 and bytes_counter &amp;lt; 95" style="text;html=1;align=center;verticalAlign=middle;resizable=0;points=[];autosize=1;strokeColor=none;fillColor=none;" vertex="1" parent="1">
          <mxGeometry x="230" y="270" width="260" height="30" as="geometry" />
        </mxCell>
        <mxCell id="HfIdxlfp_fUdMLVI8EaK-20" value="rsa_finished = 1" style="text;html=1;align=center;verticalAlign=middle;resizable=0;points=[];autosize=1;strokeColor=none;fillColor=none;" vertex="1" parent="1">
          <mxGeometry x="575" y="568" width="110" height="30" as="geometry" />
        </mxCell>
        <mxCell id="HfIdxlfp_fUdMLVI8EaK-21" value="" style="curved=1;endArrow=classic;html=1;rounded=0;exitX=1;exitY=0;exitDx=0;exitDy=0;entryX=1;entryY=1;entryDx=0;entryDy=0;" edge="1" parent="1" source="HfIdxlfp_fUdMLVI8EaK-3" target="HfIdxlfp_fUdMLVI8EaK-3">
          <mxGeometry width="50" height="50" relative="1" as="geometry">
            <mxPoint x="685" y="480" as="sourcePoint" />
            <mxPoint x="860" y="420" as="targetPoint" />
            <Array as="points">
              <mxPoint x="720" y="460" />
            </Array>
          </mxGeometry>
        </mxCell>
        <mxCell id="HfIdxlfp_fUdMLVI8EaK-22" value="rsa_finished = 0" style="text;html=1;align=center;verticalAlign=middle;resizable=0;points=[];autosize=1;strokeColor=none;fillColor=none;" vertex="1" parent="1">
          <mxGeometry x="680" y="445" width="110" height="30" as="geometry" />
        </mxCell>
        <mxCell id="HfIdxlfp_fUdMLVI8EaK-23" value="" style="curved=1;endArrow=classic;html=1;rounded=0;exitX=1;exitY=0.5;exitDx=0;exitDy=0;entryX=0.5;entryY=1;entryDx=0;entryDy=0;" edge="1" parent="1" source="HfIdxlfp_fUdMLVI8EaK-4" target="HfIdxlfp_fUdMLVI8EaK-4">
          <mxGeometry width="50" height="50" relative="1" as="geometry">
            <mxPoint x="730" y="800" as="sourcePoint" />
            <mxPoint x="610" y="790" as="targetPoint" />
            <Array as="points">
              <mxPoint x="680" y="760" />
              <mxPoint x="640" y="800" />
            </Array>
          </mxGeometry>
        </mxCell>
        <mxCell id="HfIdxlfp_fUdMLVI8EaK-27" value="!avm_waitrequest &amp;&amp; avm_readdata[TX_OK_BIT] = 0" style="text;whiteSpace=wrap;" vertex="1" parent="1">
          <mxGeometry x="510" y="790" width="300" height="40" as="geometry" />
        </mxCell>
        <mxCell id="HfIdxlfp_fUdMLVI8EaK-28" value="!avm_waitrequest &amp;&amp; avm_readdata[TX_OK_BIT] = 1" style="text;whiteSpace=wrap;" vertex="1" parent="1">
          <mxGeometry x="210" y="750" width="300" height="40" as="geometry" />
        </mxCell>
        <mxCell id="HfIdxlfp_fUdMLVI8EaK-29" value="" style="curved=1;endArrow=classic;html=1;rounded=0;entryX=0;entryY=0.5;entryDx=0;entryDy=0;exitX=0.5;exitY=1;exitDx=0;exitDy=0;" edge="1" parent="1" source="HfIdxlfp_fUdMLVI8EaK-5" target="HfIdxlfp_fUdMLVI8EaK-5">
          <mxGeometry width="50" height="50" relative="1" as="geometry">
            <mxPoint x="-50" y="750" as="sourcePoint" />
            <mxPoint y="700" as="targetPoint" />
            <Array as="points">
              <mxPoint x="80" y="800" />
              <mxPoint x="40" y="760" />
            </Array>
          </mxGeometry>
        </mxCell>
        <mxCell id="HfIdxlfp_fUdMLVI8EaK-30" value="avm_waitrequest = 1" style="text;whiteSpace=wrap;" vertex="1" parent="1">
          <mxGeometry x="-10" y="790" width="120" height="40" as="geometry" />
        </mxCell>
        <mxCell id="HfIdxlfp_fUdMLVI8EaK-31" value="avm_waitrequest = 0 and bytes_counter = 30" style="text;html=1;align=center;verticalAlign=middle;resizable=0;points=[];autosize=1;strokeColor=none;fillColor=none;" vertex="1" parent="1">
          <mxGeometry x="-120" y="490" width="260" height="30" as="geometry" />
        </mxCell>
        <mxCell id="HfIdxlfp_fUdMLVI8EaK-32" value="avm_waitrequest = 0 and bytes_counter &amp;lt; 30" style="text;html=1;align=center;verticalAlign=middle;resizable=0;points=[];autosize=1;strokeColor=none;fillColor=none;" vertex="1" parent="1">
          <mxGeometry x="220" y="620" width="260" height="30" as="geometry" />
        </mxCell>
      </root>
    </mxGraphModel>
  </diagram>
</mxfile>
